<svg width="25" height="24" viewBox="0 0 25 24" fill="none" xmlns="http://www.w3.org/2000/svg">
<circle cx="4" cy="4" r="4" transform="matrix(-1 0 0 1 14.5 3)" stroke="black" stroke-width="1.5"/>
<path d="M3.5 16.9347C3.5 16.0743 4.04085 15.3068 4.85109 15.0175V15.0175C8.50404 13.7128 12.496 13.7128 16.1489 15.0175V15.0175C16.9591 15.3068 17.5 16.0743 17.5 16.9347V18.2502C17.5 19.4376 16.4483 20.3498 15.2728 20.1818L14.3184 20.0455C11.7856 19.6837 9.21435 19.6837 6.68162 20.0455L5.72721 20.1818C4.5517 20.3498 3.5 19.4376 3.5 18.2502V16.9347Z" stroke="black" stroke-width="1.5"/>
<path d="M17.5 11H21.5" stroke="black" stroke-width="1.5" stroke-linecap="round" stroke-linejoin="round"/>
<path d="M19.5 9L19.5 13" stroke="black" stroke-width="1.5" stroke-linecap="round" stroke-linejoin="round"/>
</svg>
