<svg width="61" height="60" viewBox="0 0 61 60" fill="none" xmlns="http://www.w3.org/2000/svg">
<rect x="0.5" width="60" height="60" rx="30" fill="black" fill-opacity="0.2"/>
<path d="M17.0464 28.6285C17.1446 27.0167 17.1937 26.2108 17.6114 25.4357C17.993 24.7275 18.7231 24.0406 19.4532 23.7028C20.2523 23.3331 21.1682 23.3331 23.0001 23.3331C23.6829 23.3331 24.0243 23.3331 24.3549 23.2772C24.6818 23.222 25.0006 23.1264 25.3039 22.9925C25.6107 22.8571 25.8957 22.6692 26.4658 22.2934L26.7577 22.1009C30.1483 19.8653 31.8436 18.7475 33.2667 19.2332C33.5396 19.3263 33.8037 19.4607 34.0396 19.6264C35.2699 20.4911 35.3633 22.5027 35.5503 26.5259C35.6195 28.0156 35.6667 29.2905 35.6667 29.9997C35.6667 30.7089 35.6195 31.9839 35.5503 33.4736C35.3633 37.4968 35.2699 39.5084 34.0396 40.373C33.8037 40.5388 33.5396 40.6732 33.2667 40.7663C31.8436 41.2519 30.1483 40.1341 26.7577 37.8985L26.4658 37.7061C25.8957 37.3302 25.6107 37.1423 25.3039 37.0069C25.0006 36.8731 24.6818 36.7774 24.3549 36.7222C24.0243 36.6664 23.6829 36.6664 23.0001 36.6664C21.1682 36.6664 20.2523 36.6664 19.4532 36.2967C18.7231 35.9589 17.993 35.2719 17.6114 34.5637C17.1937 33.7886 17.1446 32.9827 17.0464 31.3709C17.0173 30.8941 17 30.4296 17 29.9997C17 29.5699 17.0173 29.1053 17.0464 28.6285Z" stroke="white" stroke-width="1.5"/>
<path d="M41.6667 22C41.6667 22 43.6667 24.4 43.6667 30C43.6667 35.6 41.6667 38 41.6667 38" stroke="white" stroke-width="1.5" stroke-linecap="round"/>
<path d="M39 26C39 26 39.6667 27.2 39.6667 30C39.6667 32.8 39 34 39 34" stroke="white" stroke-width="1.5" stroke-linecap="round"/>
</svg>
