<svg width="61" height="60" viewBox="0 0 61 60" fill="none" xmlns="http://www.w3.org/2000/svg">
<rect x="0.5" width="60" height="60" rx="30" fill="black" fill-opacity="0.2"/>
<path d="M19.0464 28.629C19.1446 27.0172 19.1937 26.2113 19.6114 25.4362C19.993 24.728 20.7231 24.041 21.4532 23.7033C22.2523 23.3335 23.1682 23.3335 25.0001 23.3335C25.6829 23.3335 26.0243 23.3335 26.3549 23.2777C26.6818 23.2225 27.0006 23.1269 27.3039 22.993C27.6107 22.8576 27.8957 22.6697 28.4658 22.2938L28.7577 22.1014C32.1483 19.8658 33.8436 18.748 35.2667 19.2336C35.5396 19.3268 35.8037 19.4612 36.0396 19.6269C37.2699 20.4915 37.3633 22.5031 37.5503 26.5264C37.6195 28.016 37.6667 29.291 37.6667 30.0002C37.6667 30.7094 37.6195 31.9844 37.5503 33.4741C37.3633 37.4973 37.2699 39.5089 36.0396 40.3735C35.8037 40.5392 35.5396 40.6737 35.2667 40.7668C33.8436 41.2524 32.1483 40.1346 28.7577 37.899L28.4658 37.7066C27.8957 37.3307 27.6107 37.1428 27.3039 37.0074C27.0006 36.8736 26.6818 36.7779 26.3549 36.7227C26.0243 36.6669 25.6829 36.6669 25.0001 36.6669C23.1682 36.6669 22.2523 36.6669 21.4532 36.2972C20.7231 35.9594 19.993 35.2724 19.6114 34.5642C19.1937 33.7891 19.1446 32.9832 19.0464 31.3714C19.0173 30.8946 19 30.4301 19 30.0002C19 29.5703 19.0173 29.1058 19.0464 28.629Z" stroke="white" stroke-width="1.5"/>
<path d="M41 26C41 26 41.6667 27.2 41.6667 30C41.6667 32.8 41 34 41 34" stroke="white" stroke-width="1.5" stroke-linecap="round"/>
</svg>
