<svg width="36" height="36" viewBox="0 0 36 36" fill="none" xmlns="http://www.w3.org/2000/svg">
<rect width="36" height="36" rx="18" fill="#B9B9B9"/>
<g filter="url(#filter0_d_134_13365)">
<path d="M23.2905 17.9687C23.2905 18.7073 22.6984 19.3062 21.9679 19.3062C21.2374 19.3062 20.6453 18.7073 20.6453 17.9687C20.6453 17.23 21.2374 16.6311 21.9679 16.6311C22.6984 16.6311 23.2905 17.23 23.2905 17.9687Z" fill="white"/>
<path fill-rule="evenodd" clip-rule="evenodd" d="M24.1316 13.408C23.2832 13.2873 22.1897 13.2873 20.8267 13.2874H15.1733C13.8103 13.2873 12.7168 13.2873 11.8684 13.408C10.9906 13.5328 10.2596 13.8007 9.71603 14.4285C9.17252 15.0563 9.00655 15.8245 9.00019 16.7209C8.99404 17.5872 9.13858 18.6834 9.31873 20.0496L9.68419 22.8214C9.825 23.8895 9.93897 24.7539 10.1162 25.4309C10.3006 26.1355 10.5729 26.7197 11.0838 27.172C11.5948 27.6244 12.2034 27.8201 12.9184 27.9119C13.6053 28 14.4678 28 15.5333 28H20.4667C21.5322 28 22.3947 28 23.0816 27.9119C23.7966 27.8201 24.4052 27.6244 24.9162 27.172C25.4271 26.7197 25.6994 26.1355 25.8838 25.4309C26.061 24.7539 26.175 23.8894 26.3158 22.8213L26.6813 20.0496C26.8614 18.6834 27.006 17.5872 26.9998 16.7209C26.9934 15.8245 26.8275 15.0563 26.284 14.4285C25.7404 13.8007 25.0094 13.5328 24.1316 13.408ZM12.0526 14.7325C11.3257 14.8359 10.958 15.0244 10.7112 15.3096C10.4643 15.5947 10.3281 15.9882 10.3228 16.7305C10.3174 17.4918 10.448 18.4945 10.6366 19.9249L10.6866 20.3042L11.0582 20.032C12.0171 19.3297 13.4339 19.3643 14.3458 20.1275L17.7301 22.9603C18.0499 23.228 18.6011 23.2781 18.9989 23.0441L19.2341 22.9057C20.3594 22.2437 21.8676 22.3135 22.9059 23.0958L24.7378 24.4758C24.8281 23.9802 24.909 23.3709 25.0107 22.5999L25.3634 19.9249C25.552 18.4945 25.6826 17.4918 25.6772 16.7305C25.6719 15.9882 25.5357 15.5947 25.2888 15.3096C25.042 15.0244 24.6743 14.8359 23.9474 14.7325C23.2019 14.6264 22.2018 14.6249 20.7748 14.6249H15.2252C13.7982 14.6249 12.7981 14.6264 12.0526 14.7325Z" fill="white"/>
<path d="M14.8589 8.00001H21.141C21.3502 7.99995 21.5106 7.99991 21.6508 8.01515C22.6479 8.12351 23.4639 8.78957 23.81 9.68676H12.1898C12.5359 8.78957 13.352 8.12351 14.349 8.01515C14.4892 7.99991 14.6496 7.99995 14.8589 8.00001Z" fill="white"/>
<path d="M12.8794 10.5C11.6279 10.5 10.6016 11.3397 10.2592 12.4538C10.252 12.477 10.2452 12.5003 10.2386 12.5238C10.597 12.4032 10.9699 12.3245 11.3474 12.2707C12.3197 12.1322 13.5485 12.1323 14.976 12.1323L15.0826 12.1323L21.1789 12.1323C22.6063 12.1323 23.8351 12.1322 24.8074 12.2707C25.185 12.3245 25.5579 12.4032 25.9162 12.5238C25.9097 12.5003 25.9028 12.477 25.8957 12.4538C25.5532 11.3397 24.527 10.5 23.2754 10.5H12.8794Z" fill="white"/>
</g>
<defs>
<filter id="filter0_d_134_13365" x="5" y="5" width="28" height="28" filterUnits="userSpaceOnUse" color-interpolation-filters="sRGB">
<feFlood flood-opacity="0" result="BackgroundImageFix"/>
<feColorMatrix in="SourceAlpha" type="matrix" values="0 0 0 0 0 0 0 0 0 0 0 0 0 0 0 0 0 0 127 0" result="hardAlpha"/>
<feOffset dx="1" dy="1"/>
<feGaussianBlur stdDeviation="1"/>
<feComposite in2="hardAlpha" operator="out"/>
<feColorMatrix type="matrix" values="0 0 0 0 0 0 0 0 0 0 0 0 0 0 0 0 0 0 0.25 0"/>
<feBlend mode="normal" in2="BackgroundImageFix" result="effect1_dropShadow_134_13365"/>
<feBlend mode="normal" in="SourceGraphic" in2="effect1_dropShadow_134_13365" result="shape"/>
</filter>
</defs>
</svg>
