<svg width="21" height="21" viewBox="0 0 21 21" fill="none" xmlns="http://www.w3.org/2000/svg">
<path d="M1.75 10.5C1.75 7.20017 1.75 5.55025 2.77513 4.52513C3.80025 3.5 5.45017 3.5 8.75 3.5H12.25C15.5498 3.5 17.1997 3.5 18.2249 4.52513C19.25 5.55025 19.25 7.20017 19.25 10.5V12.25C19.25 15.5498 19.25 17.1997 18.2249 18.2249C17.1997 19.25 15.5498 19.25 12.25 19.25H8.75C5.45017 19.25 3.80025 19.25 2.77513 18.2249C1.75 17.1997 1.75 15.5498 1.75 12.25V10.5Z" stroke="#403BF3" stroke-width="1.5"/>
<path d="M6.125 3.5V2.1875" stroke="#403BF3" stroke-width="1.5" stroke-linecap="round"/>
<path d="M14.875 3.5V2.1875" stroke="#403BF3" stroke-width="1.5" stroke-linecap="round"/>
<path d="M2.1875 7.875H18.8125" stroke="#403BF3" stroke-width="1.5" stroke-linecap="round"/>
<path d="M15.75 14.875C15.75 15.3582 15.3582 15.75 14.875 15.75C14.3918 15.75 14 15.3582 14 14.875C14 14.3918 14.3918 14 14.875 14C15.3582 14 15.75 14.3918 15.75 14.875Z" fill="#403BF3"/>
<path d="M15.75 11.375C15.75 11.8582 15.3582 12.25 14.875 12.25C14.3918 12.25 14 11.8582 14 11.375C14 10.8918 14.3918 10.5 14.875 10.5C15.3582 10.5 15.75 10.8918 15.75 11.375Z" fill="#403BF3"/>
<path d="M11.375 14.875C11.375 15.3582 10.9832 15.75 10.5 15.75C10.0168 15.75 9.625 15.3582 9.625 14.875C9.625 14.3918 10.0168 14 10.5 14C10.9832 14 11.375 14.3918 11.375 14.875Z" fill="#403BF3"/>
<path d="M11.375 11.375C11.375 11.8582 10.9832 12.25 10.5 12.25C10.0168 12.25 9.625 11.8582 9.625 11.375C9.625 10.8918 10.0168 10.5 10.5 10.5C10.9832 10.5 11.375 10.8918 11.375 11.375Z" fill="#403BF3"/>
<path d="M7 14.875C7 15.3582 6.60825 15.75 6.125 15.75C5.64175 15.75 5.25 15.3582 5.25 14.875C5.25 14.3918 5.64175 14 6.125 14C6.60825 14 7 14.3918 7 14.875Z" fill="#403BF3"/>
<path d="M7 11.375C7 11.8582 6.60825 12.25 6.125 12.25C5.64175 12.25 5.25 11.8582 5.25 11.375C5.25 10.8918 5.64175 10.5 6.125 10.5C6.60825 10.5 7 10.8918 7 11.375Z" fill="#403BF3"/>
</svg>
