<svg width="20" height="20" viewBox="0 0 20 20" fill="none" xmlns="http://www.w3.org/2000/svg">
<path d="M16.6666 3.33351L13.3333 6.66683M13.3332 3.3335L16.6666 6.66682" stroke="black" stroke-width="1.5" stroke-linecap="round"/>
<path d="M8.36458 4.43031L8.90542 5.39941C9.3935 6.27398 9.19757 7.42126 8.42885 8.18999C8.42884 8.19 8.42884 8.19 8.42884 8.19C8.42873 8.19011 7.4965 9.12255 9.18701 10.8131C10.8769 12.5029 11.8093 11.5721 11.8101 11.5712C11.8101 11.5712 11.8101 11.5712 11.8101 11.5712C12.5788 10.8025 13.7261 10.6066 14.6007 11.0947L15.5698 11.6355C16.8904 12.3725 17.0463 14.2245 15.8856 15.3853C15.1881 16.0828 14.3336 16.6256 13.389 16.6614C11.7989 16.7217 9.09848 16.3192 6.38967 13.6104C3.68086 10.9016 3.27843 8.20118 3.33871 6.61107C3.37452 5.6665 3.91725 4.81203 4.61476 4.11452C5.77555 2.95373 7.62756 3.10969 8.36458 4.43031Z" stroke="black" stroke-width="1.5" stroke-linecap="round"/>
</svg>
