<svg width="28" height="28" viewBox="0 0 28 28" fill="none" xmlns="http://www.w3.org/2000/svg">
<rect x="1" y="1" width="26" height="26" rx="13" fill="url(#paint0_linear_134_5362)"/>
<rect x="1" y="1" width="26" height="26" rx="13" stroke="#F1F1F1" stroke-width="2"/>
<path fill-rule="evenodd" clip-rule="evenodd" d="M12.5185 20H15.4815C17.5622 20 18.6025 20 19.3498 19.5097C19.6734 19.2975 19.9511 19.0248 20.1673 18.7071C20.6667 17.9734 20.6667 16.9519 20.6667 14.9091C20.6667 12.8662 20.6667 11.8448 20.1673 11.1111C19.9511 10.7934 19.6734 10.5207 19.3498 10.3085C18.8696 9.99342 18.2684 9.88082 17.348 9.84057C16.9088 9.84057 16.5306 9.51379 16.4444 9.09091C16.3152 8.45659 15.748 8 15.0891 8H12.9109C12.252 8 11.6848 8.45659 11.5556 9.09091C11.4694 9.51379 11.0912 9.84057 10.652 9.84057C9.73155 9.88082 9.13036 9.99342 8.65016 10.3085C8.32663 10.5207 8.04885 10.7934 7.83268 11.1111C7.33333 11.8448 7.33333 12.8662 7.33333 14.9091C7.33333 16.9519 7.33333 17.9734 7.83268 18.7071C8.04885 19.0248 8.32663 19.2975 8.65016 19.5097C9.39749 20 10.4378 20 12.5185 20ZM14 12.1818C12.4659 12.1818 11.2222 13.4029 11.2222 14.9091C11.2222 16.4153 12.4659 17.6364 14 17.6364C15.5341 17.6364 16.7778 16.4153 16.7778 14.9091C16.7778 13.4029 15.5341 12.1818 14 12.1818ZM14 13.2727C13.0795 13.2727 12.3333 14.0054 12.3333 14.9091C12.3333 15.8128 13.0795 16.5455 14 16.5455C14.9205 16.5455 15.6667 15.8128 15.6667 14.9091C15.6667 14.0054 14.9205 13.2727 14 13.2727ZM17.1481 12.7273C17.1481 12.426 17.3969 12.1818 17.7037 12.1818H18.4444C18.7513 12.1818 19 12.426 19 12.7273C19 13.0285 18.7513 13.2727 18.4444 13.2727H17.7037C17.3969 13.2727 17.1481 13.0285 17.1481 12.7273Z" fill="#F1F1F1"/>
<defs>
<linearGradient id="paint0_linear_134_5362" x1="15.7155" y1="1.22247" x2="13.6923" y2="24.2905" gradientUnits="userSpaceOnUse">
<stop stop-color="#1DA6FC"/>
<stop offset="1" stop-color="#403BF3"/>
</linearGradient>
</defs>
</svg>
