<svg width="24" height="24" viewBox="0 0 24 24" fill="none" xmlns="http://www.w3.org/2000/svg">
<path d="M22 12C22 6.47715 17.5228 2 12 2C6.47715 2 2 6.47715 2 12C2 13.5997 2.37562 15.1116 3.04346 16.4525C3.22094 16.8088 3.28001 17.2161 3.17712 17.6006L2.58151 19.8267C2.32295 20.793 3.20701 21.677 4.17335 21.4185L6.39939 20.8229C6.78393 20.72 7.19121 20.7791 7.54753 20.9565C8.88837 21.6244 10.4003 22 12 22C12.5822 22 13.1528 21.9502 13.7078 21.8548" stroke="black" stroke-width="1.5" stroke-linecap="round"/>
<path d="M8 10.5H16" stroke="black" stroke-width="1.5" stroke-linecap="round"/>
<path d="M8 14H13.5" stroke="black" stroke-width="1.5" stroke-linecap="round"/>
<path d="M15.76 15.5215L17.6072 14.0505C18.8011 13.0997 19.3981 12.6243 19.7733 12.8591C20.1485 13.0939 19.9537 13.821 19.5641 15.2752L19.5274 15.4123C19.3868 15.9367 19.3166 16.199 19.4401 16.4084L19.4466 16.4193C19.5747 16.6262 19.8476 16.6993 20.3935 16.8456C21.3758 17.1088 21.867 17.2404 21.9532 17.5828C21.9546 17.5884 21.9559 17.5941 21.9572 17.5998C22.0328 17.9444 21.6453 18.2529 20.8704 18.8701L19.0233 20.341C17.8293 21.2918 17.2323 21.7672 16.8571 21.5324C16.4818 21.2975 16.6767 20.5705 17.0663 19.1163L17.1031 18.9793C17.2436 18.4548 17.3139 18.1925 17.1904 17.9831L17.1838 17.9722C17.0557 17.7654 16.7828 17.6922 16.2369 17.546C15.2546 17.2827 14.7634 17.1511 14.6773 16.8087C14.6758 16.8031 14.6745 16.7974 14.6732 16.7917C14.5976 16.4472 14.9851 16.1386 15.76 15.5215Z" stroke="black" stroke-width="1.5"/>
</svg>
