<svg width="25" height="24" viewBox="0 0 25 24" fill="none" xmlns="http://www.w3.org/2000/svg">
<path fill-rule="evenodd" clip-rule="evenodd" d="M12.5 2.75C7.39137 2.75 3.25 6.89137 3.25 12C3.25 13.4811 3.59753 14.8788 4.2148 16.1181C4.46254 16.6155 4.55794 17.2103 4.40163 17.7945L3.80602 20.0205C3.69663 20.4293 4.07066 20.8034 4.47949 20.694L6.70553 20.0984C7.28973 19.9421 7.88451 20.0375 8.38191 20.2852C9.62121 20.9025 11.0189 21.25 12.5 21.25C17.6086 21.25 21.75 17.1086 21.75 12C21.75 6.89137 17.6086 2.75 12.5 2.75ZM1.75 12C1.75 6.06294 6.56294 1.25 12.5 1.25C18.4371 1.25 23.25 6.06294 23.25 12C23.25 17.9371 18.4371 22.75 12.5 22.75C10.7817 22.75 9.15552 22.3463 7.71315 21.6279C7.49791 21.5207 7.27814 21.4979 7.09324 21.5474L4.8672 22.143C3.34337 22.5507 1.94927 21.1566 2.357 19.6328L2.9526 17.4068C3.00208 17.2219 2.97933 17.0021 2.87213 16.7869C2.15371 15.3445 1.75 13.7183 1.75 12ZM7.75 10.5C7.75 10.0858 8.08579 9.75 8.5 9.75H16.5C16.9142 9.75 17.25 10.0858 17.25 10.5C17.25 10.9142 16.9142 11.25 16.5 11.25H8.5C8.08579 11.25 7.75 10.9142 7.75 10.5ZM7.75 14C7.75 13.5858 8.08579 13.25 8.5 13.25H14C14.4142 13.25 14.75 13.5858 14.75 14C14.75 14.4142 14.4142 14.75 14 14.75H8.5C8.08579 14.75 7.75 14.4142 7.75 14Z" fill="#676767"/>
</svg>
