<svg width="16" height="17" viewBox="0 0 16 17" fill="none" xmlns="http://www.w3.org/2000/svg">
<path d="M7.99992 1.83331C4.32659 1.83331 1.33325 4.82665 1.33325 8.49998C1.33325 12.1733 4.32659 15.1666 7.99992 15.1666C11.6733 15.1666 14.6666 12.1733 14.6666 8.49998C14.6666 4.82665 11.6733 1.83331 7.99992 1.83331ZM11.1866 6.96665L7.40659 10.7466C7.31325 10.84 7.18659 10.8933 7.05325 10.8933C6.91992 10.8933 6.79325 10.84 6.69992 10.7466L4.81325 8.85998C4.61992 8.66665 4.61992 8.34665 4.81325 8.15331C5.00659 7.95998 5.32659 7.95998 5.51992 8.15331L7.05325 9.68665L10.4799 6.25998C10.6733 6.06665 10.9933 6.06665 11.1866 6.25998C11.3799 6.45331 11.3799 6.76665 11.1866 6.96665Z" fill="#3AC754"/>
</svg>
