<svg width="16" height="17" viewBox="0 0 16 17" fill="none" xmlns="http://www.w3.org/2000/svg">
<path d="M7.99992 1.83331C4.32659 1.83331 1.33325 4.82665 1.33325 8.49998C1.33325 12.1733 4.32659 15.1666 7.99992 15.1666C11.6733 15.1666 14.6666 12.1733 14.6666 8.49998C14.6666 4.82665 11.6733 1.83331 7.99992 1.83331ZM10.2399 10.0333C10.4333 10.2266 10.4333 10.5466 10.2399 10.74C10.1399 10.84 10.0133 10.8866 9.88659 10.8866C9.75992 10.8866 9.63325 10.84 9.53325 10.74L7.99992 9.20665L6.46659 10.74C6.36659 10.84 6.23992 10.8866 6.11325 10.8866C5.98659 10.8866 5.85992 10.84 5.75992 10.74C5.56659 10.5466 5.56659 10.2266 5.75992 10.0333L7.29325 8.49998L5.75992 6.96665C5.56659 6.77331 5.56659 6.45331 5.75992 6.25998C5.95325 6.06665 6.27325 6.06665 6.46659 6.25998L7.99992 7.79331L9.53325 6.25998C9.72659 6.06665 10.0466 6.06665 10.2399 6.25998C10.4333 6.45331 10.4333 6.77331 10.2399 6.96665L8.70659 8.49998L10.2399 10.0333Z" fill="#FF5555"/>
</svg>
