<svg width="22" height="22" viewBox="0 0 22 22" fill="none" xmlns="http://www.w3.org/2000/svg">
<path fill-rule="evenodd" clip-rule="evenodd" d="M20.1668 10.9999C20.1668 16.0625 16.0628 20.1666 11.0002 20.1666C5.93755 20.1666 1.8335 16.0625 1.8335 10.9999C1.8335 5.93731 5.93755 1.83325 11.0002 1.83325C16.0628 1.83325 20.1668 5.93731 20.1668 10.9999ZM8.22232 8.2221C8.49081 7.95361 8.92611 7.95361 9.19459 8.2221L11.0001 10.0276L12.8057 8.22212C13.0741 7.95363 13.5094 7.95363 13.7779 8.22212C14.0464 8.4906 14.0464 8.9259 13.7779 9.19439L11.9724 10.9999L13.7779 12.8054C14.0464 13.0739 14.0464 13.5092 13.7779 13.7777C13.5094 14.0462 13.0741 14.0462 12.8056 13.7777L11.0001 11.9722L9.19461 13.7777C8.92613 14.0462 8.49083 14.0462 8.22234 13.7777C7.95386 13.5092 7.95386 13.0739 8.22234 12.8054L10.0279 10.9999L8.22232 9.19437C7.95384 8.92588 7.95384 8.49058 8.22232 8.2221Z" fill="#676767"/>
</svg>
