<svg width="25" height="24" viewBox="0 0 25 24" fill="none" xmlns="http://www.w3.org/2000/svg">
<path d="M20.5 14V10C20.5 6.22876 20.5 4.34315 19.3284 3.17157C18.1569 2 16.2712 2 12.5 2H4.5V22H12.5C16.2712 22 18.1569 22 19.3284 20.8284C20.5 19.6569 20.5 17.7712 20.5 14Z" stroke="#676767" stroke-width="1.5"/>
<circle cx="12.5" cy="9" r="2" stroke="#676767" stroke-width="1.5"/>
<path d="M16.5 15C16.5 16.1046 16.5 17 12.5 17C8.5 17 8.5 16.1046 8.5 15C8.5 13.8954 10.2909 13 12.5 13C14.7091 13 16.5 13.8954 16.5 15Z" stroke="#676767" stroke-width="1.5"/>
</svg>
