<svg width="24" height="24" viewBox="0 0 24 24" fill="none" xmlns="http://www.w3.org/2000/svg">
<g clip-path="url(#clip0_35_2949)">
<path d="M7.99982 15C9.13365 15.6303 10.5126 16 11.9998 16C13.4871 16 14.866 15.6303 15.9998 15" stroke="#676767" stroke-width="1.5" stroke-linecap="round"/>
<ellipse cx="14.9999" cy="10.5" rx="1" ry="1.5" fill="#676767"/>
<ellipse cx="9" cy="10.5" rx="1" ry="1.5" fill="#676767"/>
<path d="M2.89328 11.9999C2.89328 7.70693 2.89328 5.56045 4.22693 4.2268C5.56058 2.89315 7.70706 2.89315 12 2.89315C16.293 2.89315 18.4395 2.89315 19.7731 4.2268C21.1068 5.56045 21.1068 7.70693 21.1068 11.9999C21.1068 16.2928 21.1068 18.4393 19.7731 19.773C18.4395 21.1066 16.293 21.1066 12 21.1066C7.70706 21.1066 5.56058 21.1066 4.22693 19.773C2.89328 18.4393 2.89328 16.2928 2.89328 11.9999Z" stroke="#676767" stroke-width="1.5"/>
<path d="M11.9307 16.1227L12.1403 17.187C12.2988 17.9916 13.0741 18.5197 13.8809 18.3726C14.704 18.2226 15.2452 17.4281 15.0835 16.6072L14.882 15.5846" stroke="#676767" stroke-width="1.5"/>
</g>
<defs>
<clipPath id="clip0_35_2949">
<rect width="24" height="24" fill="white"/>
</clipPath>
</defs>
</svg>
