<svg width="21" height="21" viewBox="0 0 21 21" fill="none" xmlns="http://www.w3.org/2000/svg">
<path d="M2.43936 5.82956C2.27619 5.44884 1.83528 5.27247 1.45456 5.43564C1.07384 5.59881 0.897475 6.03972 1.06064 6.42044L2.43936 5.82956ZM13.6388 11.6626L13.3641 10.9647L13.6388 11.6626ZM7.98985 12.0717C8.21575 11.7245 8.11744 11.2599 7.77025 11.034C7.42306 10.8081 6.95848 10.9064 6.73257 11.2536L7.98985 12.0717ZM5.49636 13.1535C5.27045 13.5006 5.36877 13.9652 5.71596 14.1911C6.06315 14.417 6.52773 14.3187 6.75364 13.9715L5.49636 13.1535ZM19.9394 6.42044C20.1025 6.03972 19.9262 5.59881 19.5454 5.43564C19.1647 5.27247 18.7238 5.44884 18.5606 5.82956L19.9394 6.42044ZM16.625 9.73773L16.1117 9.19088V9.19089L16.625 9.73773ZM17.4072 11.5806C17.7001 11.8735 18.1749 11.8735 18.4678 11.5806C18.7607 11.2877 18.7607 10.8128 18.4678 10.5199L17.4072 11.5806ZM9.75 14.4375C9.75 14.8517 10.0858 15.1875 10.5 15.1875C10.9142 15.1875 11.25 14.8517 11.25 14.4375H9.75ZM14.2464 13.9715C14.4723 14.3187 14.9369 14.417 15.284 14.1911C15.6312 13.9652 15.7295 13.5006 15.5036 13.1535L14.2464 13.9715ZM4.90533 10.2681C5.19822 9.97517 5.19822 9.5003 4.90533 9.2074C4.61244 8.91451 4.13756 8.91451 3.84467 9.2074L4.90533 10.2681ZM2.53217 10.5199C2.23928 10.8128 2.23928 11.2877 2.53217 11.5806C2.82506 11.8735 3.29994 11.8735 3.59283 11.5806L2.53217 10.5199ZM10.5 11.5C7.71361 11.5 5.71133 10.1134 4.37772 8.67716C3.71114 7.95931 3.22216 7.23909 2.90033 6.69842C2.73984 6.42879 2.62209 6.20579 2.54558 6.05277C2.50735 5.97632 2.47951 5.91751 2.46185 5.87929C2.45302 5.86018 2.44675 5.84624 2.44301 5.83782C2.44114 5.83361 2.4399 5.83079 2.43929 5.8294C2.43899 5.8287 2.43884 5.82836 2.43885 5.82839C2.43886 5.8284 2.43891 5.8285 2.43899 5.8287C2.43903 5.8288 2.43912 5.82901 2.43914 5.82906C2.43925 5.8293 2.43936 5.82956 1.75 6.125C1.06064 6.42044 1.06077 6.42075 1.06092 6.42108C1.06098 6.42122 1.06113 6.42158 1.06125 6.42186C1.0615 6.42243 1.06178 6.42309 1.06211 6.42384C1.06276 6.42535 1.06358 6.42723 1.06456 6.42948C1.06652 6.43398 1.06914 6.43994 1.07242 6.44732C1.07899 6.46208 1.0882 6.48253 1.1001 6.50829C1.12389 6.55978 1.15842 6.63257 1.20394 6.72359C1.29491 6.90554 1.43008 7.16105 1.61139 7.46564C1.97316 8.07341 2.52324 8.88444 3.27853 9.69784C4.78867 11.3241 7.16139 13 10.5 13V11.5ZM13.3641 10.9647C12.5255 11.2948 11.5742 11.5 10.5 11.5V13C11.7707 13 12.9079 12.7563 13.9135 12.3605L13.3641 10.9647ZM6.73257 11.2536L5.49636 13.1535L6.75364 13.9715L7.98985 12.0717L6.73257 11.2536ZM19.25 6.125C18.5606 5.82956 18.5607 5.82941 18.5608 5.82926C18.5608 5.82923 18.5608 5.82909 18.5609 5.82901C18.5609 5.82886 18.561 5.82873 18.561 5.82863C18.5611 5.82844 18.5612 5.82836 18.5611 5.8284C18.5611 5.82846 18.5609 5.82899 18.5605 5.82996C18.5596 5.83191 18.558 5.83564 18.5555 5.8411C18.5507 5.85201 18.5426 5.86981 18.5313 5.89398C18.5088 5.94232 18.4734 6.01604 18.425 6.11099C18.3281 6.30107 18.1792 6.57525 17.9764 6.90072C17.5695 7.55384 16.9526 8.40163 16.1117 9.19088L17.1383 10.2846C18.0987 9.38314 18.7943 8.42456 19.2495 7.69399C19.4778 7.32762 19.6475 7.01561 19.7613 6.79248C19.8182 6.68083 19.8613 6.59118 19.8908 6.5278C19.9056 6.49611 19.917 6.47096 19.9251 6.4529C19.9291 6.44386 19.9323 6.4366 19.9347 6.43117C19.9359 6.42845 19.9369 6.42619 19.9377 6.4244C19.938 6.42351 19.9384 6.42273 19.9387 6.42207C19.9388 6.42174 19.9389 6.42144 19.939 6.42117C19.9391 6.42103 19.9392 6.42085 19.9392 6.42078C19.9393 6.42061 19.9394 6.42044 19.25 6.125ZM16.1117 9.19089C15.3668 9.89004 14.4545 10.5355 13.3641 10.9647L13.9135 12.3605C15.2161 11.8478 16.2857 11.0848 17.1383 10.2846L16.1117 9.19089ZM16.0947 10.2681L17.4072 11.5806L18.4678 10.5199L17.1553 9.2074L16.0947 10.2681ZM9.75 12.25V14.4375H11.25V12.25H9.75ZM13.0102 12.0717L14.2464 13.9715L15.5036 13.1535L14.2674 11.2536L13.0102 12.0717ZM3.84467 9.2074L2.53217 10.5199L3.59283 11.5806L4.90533 10.2681L3.84467 9.2074Z" fill="#403BF3"/>
</svg>
