<svg width="10" height="10" viewBox="0 0 10 10" fill="none" xmlns="http://www.w3.org/2000/svg">
<path fill-rule="evenodd" clip-rule="evenodd" d="M9.16683 3.45576C9.16683 4.904 7.98799 6.07803 6.53381 6.07803C6.26846 6.07803 5.6643 6.01704 5.37038 5.77311L5.00297 6.13902C4.78695 6.35416 4.84528 6.41749 4.94138 6.52183C4.98147 6.56536 5.02814 6.61604 5.0642 6.68785C5.0642 6.68785 5.37036 7.11474 5.0642 7.54162C4.8805 7.78555 4.36614 8.12705 3.7783 7.54162L3.65584 7.66358C3.65584 7.66358 4.02324 8.09046 3.71707 8.51734C3.53337 8.76127 3.04351 9.00521 2.61488 8.57832L2.18624 9.0052C1.89233 9.29792 1.5331 9.12717 1.39023 9.0052L1.02283 8.63931C0.679927 8.2978 0.879955 7.92784 1.02283 7.78555L4.20695 4.61444C4.20695 4.61444 3.90079 4.12657 3.90079 3.45576C3.90079 2.00752 5.07963 0.833496 6.53381 0.833496C7.98799 0.833496 9.16683 2.00752 9.16683 3.45576ZM6.53389 4.37054C7.04116 4.37054 7.45239 3.961 7.45239 3.4558C7.45239 2.9506 7.04116 2.54106 6.53389 2.54106C6.02662 2.54106 5.6154 2.9506 5.6154 3.4558C5.6154 3.961 6.02662 4.37054 6.53389 4.37054Z" fill="#FFDD00"/>
</svg>
