<svg width="53" height="73" viewBox="0 0 53 73" fill="none" xmlns="http://www.w3.org/2000/svg">
<path fill-rule="evenodd" clip-rule="evenodd" d="M32.217 0H50.4829C51.1688 0 51.7297 0.558733 51.7297 1.24207V7.45127C51.7297 11.5485 48.3641 14.9014 44.2515 14.9014H25.9839C25.298 14.9014 24.7371 14.3427 24.7371 13.6594V7.45127C24.7371 3.35296 28.1027 0 32.217 0Z" fill="url(#paint0_linear_118_857)"/>
<path fill-rule="evenodd" clip-rule="evenodd" d="M32.2153 0H50.4829C50.8428 0 51.1677 0.154483 51.3957 0.399175C50.3714 3.29996 47.5887 5.3962 44.3375 5.3962H26.0699C25.71 5.3962 25.3851 5.24171 25.157 4.99702C26.1808 2.09567 28.9652 0 32.2153 0Z" fill="url(#paint1_linear_118_857)"/>
<path fill-rule="evenodd" clip-rule="evenodd" d="M52.0686 42.4242C52.0686 28.4136 40.5627 16.9514 26.5 16.9514V16.952C12.4378 16.952 0.931351 28.4136 0.931351 42.4248V46.8247C0.931351 60.8359 12.4378 72.2975 26.5 72.2975H47.986C50.2311 72.2975 52.0686 70.468 52.0686 68.2302V42.4242ZM19.7445 43.9223C19.7445 41.905 18.1027 40.2705 16.079 40.2705C14.0535 40.2705 12.4118 41.905 12.4118 43.9223C12.4118 45.9396 14.0552 47.574 16.079 47.574C18.1027 47.574 19.7445 45.9396 19.7445 43.9223ZM26.5 40.2705C28.5249 40.2705 30.1655 41.905 30.1655 43.9223C30.1655 45.9396 28.5249 47.574 26.5 47.574C24.4751 47.574 22.8345 45.9396 22.8345 43.9223C22.8345 41.905 24.4751 40.2705 26.5 40.2705ZM40.5888 43.9223C40.5888 41.905 38.9465 40.2705 36.9216 40.2705C34.8967 40.2705 33.256 41.905 33.256 43.9223C33.256 45.9396 34.8961 47.574 36.9216 47.574C38.947 47.574 40.5888 45.9396 40.5888 43.9223Z" fill="url(#paint2_linear_118_857)"/>
<path fill-rule="evenodd" clip-rule="evenodd" d="M26.5 16.9288C38.4383 16.9288 48.5333 25.1908 51.3109 36.26C49.544 36.9338 47.7065 37.4874 45.8033 37.908C31.2317 41.1392 16.7519 35.7661 7.70552 25.1767C12.3869 20.1137 19.0869 16.9282 26.5 16.9282V16.9288Z" fill="url(#paint3_linear_118_857)"/>
<defs>
<linearGradient id="paint0_linear_118_857" x1="31.296" y1="57.6786" x2="59.1393" y2="29.045" gradientUnits="userSpaceOnUse">
<stop stop-color="#009B90"/>
<stop offset="1" stop-color="#B0F122"/>
</linearGradient>
<linearGradient id="paint1_linear_118_857" x1="31.5328" y1="20.8869" x2="37.9929" y2="3.0536" gradientUnits="userSpaceOnUse">
<stop stop-color="#009B90"/>
<stop offset="1" stop-color="#B0F122"/>
</linearGradient>
<linearGradient id="paint2_linear_118_857" x1="30.1553" y1="15.1584" x2="25.1122" y2="68.2857" gradientUnits="userSpaceOnUse">
<stop stop-color="#1DA6FC"/>
<stop offset="1" stop-color="#403BF3"/>
</linearGradient>
<linearGradient id="paint3_linear_118_857" x1="32.6251" y1="16.2183" x2="31.6914" y2="37.4018" gradientUnits="userSpaceOnUse">
<stop stop-color="#1DA6FC"/>
<stop offset="1" stop-color="#403BF3"/>
</linearGradient>
</defs>
</svg>
