<svg width="61" height="60" viewBox="0 0 61 60" fill="none" xmlns="http://www.w3.org/2000/svg">
<rect x="0.5" width="60" height="60" rx="30" fill="black" fill-opacity="0.2"/>
<path d="M24.3333 24.6667C24.3333 20.9848 27.318 18 30.9999 18C34.6818 18 37.6666 20.9848 37.6666 24.6667V28.6667C37.6666 32.3486 34.6818 35.3333 30.9999 35.3333C27.318 35.3333 24.3333 32.3486 24.3333 28.6667V24.6667Z" stroke="white" stroke-width="1.5"/>
<path d="M29.6666 24.6665H32.3333" stroke="white" stroke-width="1.5" stroke-linecap="round"/>
<path d="M28.3334 28.6665L33.6667 28.6665" stroke="white" stroke-width="1.5" stroke-linecap="round"/>
<path d="M41.6666 27.3335V28.6668C41.6666 34.5579 36.891 39.3335 30.9999 39.3335C25.1089 39.3335 20.3333 34.5579 20.3333 28.6668V27.3335" stroke="white" stroke-width="1.5" stroke-linecap="round"/>
<path d="M31 39.3335V43.3335" stroke="white" stroke-width="1.5" stroke-linecap="round"/>
</svg>
