<svg width="24" height="24" viewBox="0 0 24 24" fill="none" xmlns="http://www.w3.org/2000/svg">
<path d="M14.9999 7.5L7.19054 15.4406C6.932 15.726 6.79309 16.0998 6.80257 16.4847C6.81205 16.8696 6.96919 17.2362 7.24146 17.5085C7.51372 17.7807 7.88027 17.9379 8.2652 17.9473C8.65012 17.9568 9.02396 17.8179 9.30929 17.5594L18.6187 8.11875C19.1357 7.54807 19.4136 6.80041 19.3946 6.03055C19.3757 5.2607 19.0614 4.52761 18.5168 3.98307C17.9723 3.43854 17.2392 3.12426 16.4694 3.1053C15.6995 3.08635 14.9518 3.36417 14.3812 3.88125L5.07179 13.3219C4.2289 14.1648 3.75537 15.308 3.75537 16.5C3.75537 17.692 4.2289 18.8352 5.07179 19.6781C5.91468 20.521 7.05789 20.9945 8.24992 20.9945C9.44195 20.9945 10.5852 20.521 11.428 19.6781L19.1249 12" stroke="#191C1F" stroke-width="1.5" stroke-linecap="round" stroke-linejoin="round"/>
</svg>
