<svg width="11" height="11" viewBox="0 0 11 11" fill="none" xmlns="http://www.w3.org/2000/svg">
<path d="M1.8335 10.0835H9.16683" stroke="black" stroke-linecap="round"/>
<path d="M6.36552 1.67868L6.70538 1.33882C7.26847 0.775731 8.18142 0.775731 8.74451 1.33882C9.3076 1.90191 9.3076 2.81487 8.74451 3.37796L8.40466 3.71781M6.36552 1.67868C6.36552 1.67868 6.408 2.40087 7.04523 3.0381C7.68246 3.67533 8.40466 3.71781 8.40466 3.71781M6.36552 1.67868L3.24107 4.80313C3.02944 5.01476 2.92363 5.12057 2.83263 5.23724C2.72528 5.37487 2.63325 5.52378 2.55815 5.68135C2.4945 5.81492 2.44718 5.95688 2.35254 6.24081L1.95149 7.44393M8.40466 3.71781L5.2802 6.84227C5.06857 7.05389 4.96276 7.15971 4.84609 7.25071C4.70846 7.35805 4.55955 7.45009 4.40199 7.52518C4.26842 7.58883 4.12645 7.63616 3.84253 7.7308L2.6394 8.13184M2.6394 8.13184L2.3453 8.22987C2.20558 8.27645 2.05154 8.24008 1.94739 8.13594C1.84325 8.0318 1.80689 7.87775 1.85346 7.73803L1.95149 7.44393M2.6394 8.13184L1.95149 7.44393" stroke="black"/>
</svg>
