<svg width="24" height="25" viewBox="0 0 24 25" fill="none" xmlns="http://www.w3.org/2000/svg">
<path d="M9.79229 4.98069L10.5224 6.28899C11.1813 7.46965 10.9168 9.01849 9.87905 10.0563C9.87905 10.0563 9.87905 10.0563 9.87905 10.0563C9.87893 10.0564 8.62035 11.3152 10.9026 13.5974C13.1841 15.879 14.4429 14.6218 14.4437 14.621C14.4437 14.6209 14.4437 14.6209 14.4438 14.6209C15.4815 13.5832 17.0304 13.3187 18.211 13.9776L19.5193 14.7077C21.3021 15.7027 21.5127 18.2029 19.9456 19.77C19.004 20.7116 17.8505 21.4443 16.5753 21.4926C14.4286 21.574 10.7831 21.0307 7.12617 17.3738C3.46927 13.7169 2.92599 10.0714 3.00737 7.92472C3.05571 6.64955 3.7884 5.49601 4.73003 4.55439C6.2971 2.98732 8.79732 3.19787 9.79229 4.98069Z" stroke="#676767" stroke-width="1.5" stroke-linecap="round"/>
</svg>
