<svg width="61" height="60" viewBox="0 0 61 60" fill="none" xmlns="http://www.w3.org/2000/svg">
<rect x="0.5" width="60" height="60" rx="30" fill="#FF4F4F"/>
<path d="M28.0564 19.9743L29.0299 21.7187C29.9085 23.2929 29.5558 25.358 28.1721 26.7417C28.1721 26.7417 28.1721 26.7417 28.1721 26.7417C28.1719 26.7418 26.4938 28.4202 29.5368 31.4632C32.5791 34.5056 34.2575 32.8287 34.2583 32.8279C34.2583 32.8279 34.2583 32.8279 34.2583 32.8279C35.642 31.4442 37.7071 31.0915 39.2813 31.9701L41.0257 32.9436C43.4028 34.2702 43.6836 37.6039 41.5942 39.6933C40.3386 40.9488 38.8006 41.9257 37.1004 41.9902C34.2382 42.0987 29.3774 41.3743 24.5016 36.4984C19.6257 31.6226 18.9013 26.7618 19.0098 23.8996C19.0743 22.1994 20.0512 20.6614 21.3067 19.4058C23.3961 17.3164 26.7298 17.5972 28.0564 19.9743Z" stroke="white" stroke-width="1.5" stroke-linecap="round"/>
</svg>
