<svg width="32" height="32" viewBox="0 0 32 32" fill="none" xmlns="http://www.w3.org/2000/svg">
<rect width="32" height="32" rx="16" fill="#E6EDFF"/>
<path d="M14.0114 9.73492L10.3702 12.9716C8.93227 14.2497 8.21331 14.8888 8.21331 15.7121C8.21331 16.5354 8.93226 17.1745 10.3702 18.4526L14.0114 21.6893C14.6678 22.2727 14.996 22.5644 15.2665 22.4429C15.5371 22.3214 15.5371 21.8823 15.5371 21.0042V18.855C18.8371 18.855 22.4121 20.4264 23.7871 23.0454C23.7871 14.6645 18.8982 12.5692 15.5371 12.5692V10.42C15.5371 9.54188 15.5371 9.1028 15.2665 8.9813C14.996 8.85979 14.6678 9.1515 14.0114 9.73492Z" stroke="#403BF3" stroke-width="1.5" stroke-linecap="round" stroke-linejoin="round"/>
</svg>
