<svg width="33" height="32" viewBox="0 0 33 32" fill="none" xmlns="http://www.w3.org/2000/svg">
<rect x="0.5" width="32" height="32" rx="16" fill="#565FFF"/>
<path d="M14.7644 10.5325L11.5866 13.3573C10.3317 14.4727 9.70422 15.0305 9.70422 15.749C9.70422 16.4675 10.3317 17.0252 11.5866 18.1407L14.7644 20.9654C15.3372 21.4746 15.6236 21.7292 15.8598 21.6231C16.0959 21.5171 16.0959 21.1339 16.0959 20.3675V18.4918C18.9759 18.4918 22.0959 19.8633 23.2959 22.149C23.2959 14.8347 19.0292 13.0061 16.0959 13.0061V11.1304C16.0959 10.364 16.0959 9.98085 15.8598 9.87481C15.6236 9.76877 15.3372 10.0233 14.7644 10.5325Z" stroke="white" stroke-linecap="round" stroke-linejoin="round"/>
</svg>
