<svg width="33" height="33" viewBox="0 0 33 33" fill="none" xmlns="http://www.w3.org/2000/svg">
<rect width="33" height="33" rx="16.5" fill="url(#paint0_linear_212_7875)"/>
<path fill-rule="evenodd" clip-rule="evenodd" d="M23.112 15.3291L21.7532 19.4057C20.7951 22.2799 20.316 23.7171 19.6136 24.1254C18.9453 24.514 18.1199 24.514 17.4516 24.1254C16.7492 23.7171 16.2701 22.2799 15.312 19.4057C15.1582 18.9442 15.0813 18.7134 14.9522 18.5206C14.827 18.3336 14.6665 18.1731 14.4795 18.0479C14.2867 17.9188 14.0559 17.8419 13.5944 17.6881C10.7201 16.73 9.28302 16.2509 8.87463 15.5484C8.48613 14.8802 8.48613 14.0548 8.87463 13.3865C9.28302 12.684 10.7201 12.205 13.5944 11.2469L17.671 9.88806C21.2322 8.70099 23.0128 8.10746 23.9527 9.04738C24.8926 9.9873 24.2991 11.7679 23.112 15.3291ZM17.3278 15.6311C17.0972 15.3979 17.0993 15.022 17.3324 14.7914L20.6657 11.4948C20.8989 11.2642 21.2748 11.2663 21.5054 11.4994C21.736 11.7326 21.7339 12.1085 21.5008 12.3391L18.1674 15.6357C17.9343 15.8663 17.5583 15.8642 17.3278 15.6311Z" fill="white"/>
<defs>
<linearGradient id="paint0_linear_212_7875" x1="18.8588" y1="-1.0691" x2="16.0769" y2="30.6494" gradientUnits="userSpaceOnUse">
<stop stop-color="#1DA6FC"/>
<stop offset="1" stop-color="#403BF3"/>
</linearGradient>
</defs>
</svg>
