<svg width="24" height="24" viewBox="0 0 24 24" fill="none" xmlns="http://www.w3.org/2000/svg">
<path d="M13.1221 3.98284C18.5638 3.98284 21.4653 7.87567 21.4653 12.9023C21.4653 17.9289 17.2276 22.0038 12.0002 22.0038C10.486 22.0038 9.05495 21.6619 7.78582 21.0541C7.44856 20.8926 7.06306 20.8388 6.69908 20.9324L4.5921 21.4745C3.67745 21.7098 2.84067 20.9052 3.0854 20.0257L3.64915 17.9997C3.74654 17.6497 3.69063 17.279 3.52264 16.9547C2.89052 15.7343 2.53499 14.3582 2.53499 12.9023C2.53499 9.33162 4.67333 6.24121 7.78582 4.7505M13.1221 3.98284L15.7919 2.00342M13.1221 3.98284L15.7919 6.56194" stroke="#FF4F4F" stroke-width="1.5" stroke-linecap="round" stroke-linejoin="round"/>
</svg>
